<svg xmlns="http://www.w3.org/2000/svg" width="880" height="374" viewBox="0 0 880 374" font-family="ui-monospace,SFMono-Regular,Menlo,monospace" role="img" aria-label="Treemap of 18 repositories (7 public · 11 private), each tile sized by source bytes and split by language.">
<title>Treemap of 18 repositories (7 public · 11 private), each tile sized by source bytes and split by language.</title>
<clipPath id="t0"><rect x="2.00" y="2.00" width="370.53" height="336.00" rx="5"/></clipPath>
<g clip-path="url(#t0)">
<rect x="2.00" y="2.00" width="370.53" height="293.47" fill="#dea584" fill-opacity="0.85"/>
<rect x="2.00" y="295.47" width="370.53" height="27.78" fill="#89e051" fill-opacity="0.85"/>
<rect x="2.00" y="323.26" width="370.53" height="7.08" fill="#3572a5" fill-opacity="0.85"/>
<rect x="2.00" y="330.34" width="370.53" height="3.80" fill="#012456" fill-opacity="0.85"/>
<rect x="2.00" y="334.14" width="370.53" height="2.14" fill="#7e7eff" fill-opacity="0.85"/>
<rect x="2.00" y="336.28" width="370.53" height="1.29" fill="#f05138" fill-opacity="0.85"/>
<rect x="2.00" y="337.57" width="370.53" height="0.43" fill="#8b949e" fill-opacity="0.85"/>
</g>
<rect x="2.00" y="2.00" width="370.53" height="336.00" rx="5" fill="none" stroke="#3d444d" stroke-width="1"/>
<text x="12.00" y="24.00" font-size="13" font-weight="600" fill="#f0f6fc">outloud</text>
<text x="12.00" y="40.00" font-size="11" fill="#9198a1">2.6 MB</text>
<clipPath id="t1"><rect x="376.53" y="2.00" width="196.96" height="336.00" rx="5"/></clipPath>
<g clip-path="url(#t1)">
<rect x="376.53" y="2.00" width="196.96" height="322.76" fill="#3178c6" fill-opacity="0.85"/>
<rect x="376.53" y="324.76" width="196.96" height="5.19" fill="#f1e05a" fill-opacity="0.85"/>
<rect x="376.53" y="329.95" width="196.96" height="2.86" fill="#8b949e" fill-opacity="0.85"/>
<rect x="376.53" y="332.81" width="196.96" height="2.59" fill="#3572a5" fill-opacity="0.85"/>
<rect x="376.53" y="335.40" width="196.96" height="1.18" fill="#89e051" fill-opacity="0.85"/>
<rect x="376.53" y="336.58" width="196.96" height="0.60" fill="#8b949e" fill-opacity="0.85"/>
<rect x="376.53" y="337.18" width="196.96" height="0.52" fill="#8b949e" fill-opacity="0.85"/>
<rect x="376.53" y="337.70" width="196.96" height="0.30" fill="#f05138" fill-opacity="0.85"/>
</g>
<rect x="376.53" y="2.00" width="196.96" height="336.00" rx="5" fill="none" stroke="#3d444d" stroke-width="1" stroke-dasharray="3 3"/>
<text x="386.53" y="24.00" font-size="13" font-weight="600" fill="#9198a1" font-style="italic">private</text>
<text x="386.53" y="40.00" font-size="11" fill="#9198a1">1.4 MB</text>
<clipPath id="t2"><rect x="577.49" y="2.00" width="152.78" height="114.03" rx="5"/></clipPath>
<g clip-path="url(#t2)">
<rect x="577.49" y="2.00" width="152.78" height="64.77" fill="#00add8" fill-opacity="0.85"/>
<rect x="577.49" y="66.77" width="152.78" height="29.07" fill="#8b949e" fill-opacity="0.85"/>
<rect x="577.49" y="95.85" width="152.78" height="15.18" fill="#89e051" fill-opacity="0.85"/>
<rect x="577.49" y="111.03" width="152.78" height="4.80" fill="#3178c6" fill-opacity="0.85"/>
<rect x="577.49" y="115.83" width="152.78" height="0.12" fill="#f1e05a" fill-opacity="0.85"/>
<rect x="577.49" y="115.94" width="152.78" height="0.09" fill="#e34c26" fill-opacity="0.85"/>
</g>
<rect x="577.49" y="2.00" width="152.78" height="114.03" rx="5" fill="none" stroke="#3d444d" stroke-width="1" stroke-dasharray="3 3"/>
<text x="587.49" y="24.00" font-size="13" font-weight="600" fill="#9198a1" font-style="italic">private</text>
<text x="587.49" y="40.00" font-size="11" fill="#9198a1">372 KB</text>
<clipPath id="t3"><rect x="734.27" y="2.00" width="143.73" height="114.03" rx="5"/></clipPath>
<g clip-path="url(#t3)">
<rect x="734.27" y="2.00" width="143.73" height="101.11" fill="#8b949e" fill-opacity="0.85"/>
<rect x="734.27" y="103.11" width="143.73" height="12.92" fill="#012456" fill-opacity="0.85"/>
</g>
<rect x="734.27" y="2.00" width="143.73" height="114.03" rx="5" fill="none" stroke="#3d444d" stroke-width="1" stroke-dasharray="3 3"/>
<text x="744.27" y="24.00" font-size="13" font-weight="600" fill="#9198a1" font-style="italic">private</text>
<text x="744.27" y="40.00" font-size="11" fill="#9198a1">350 KB</text>
<clipPath id="t4"><rect x="577.49" y="120.03" width="125.10" height="116.60" rx="5"/></clipPath>
<g clip-path="url(#t4)">
<rect x="577.49" y="120.03" width="125.10" height="73.35" fill="#7e7eff" fill-opacity="0.85"/>
<rect x="577.49" y="193.38" width="125.10" height="14.58" fill="#384d54" fill-opacity="0.85"/>
<rect x="577.49" y="207.96" width="125.10" height="12.46" fill="#000080" fill-opacity="0.85"/>
<rect x="577.49" y="220.42" width="125.10" height="6.98" fill="#89e051" fill-opacity="0.85"/>
<rect x="577.49" y="227.40" width="125.10" height="6.24" fill="#3572a5" fill-opacity="0.85"/>
<rect x="577.49" y="233.64" width="125.10" height="2.99" fill="#012456" fill-opacity="0.85"/>
</g>
<rect x="577.49" y="120.03" width="125.10" height="116.60" rx="5" fill="none" stroke="#3d444d" stroke-width="1" stroke-dasharray="3 3"/>
<text x="587.49" y="142.03" font-size="13" font-weight="600" fill="#9198a1" font-style="italic">private</text>
<text x="587.49" y="158.03" font-size="11" fill="#9198a1">313 KB</text>
<clipPath id="t5"><rect x="577.49" y="240.62" width="125.10" height="97.38" rx="5"/></clipPath>
<g clip-path="url(#t5)">
<rect x="577.49" y="240.62" width="125.10" height="75.14" fill="#7e7eff" fill-opacity="0.85"/>
<rect x="577.49" y="315.76" width="125.10" height="12.38" fill="#000080" fill-opacity="0.85"/>
<rect x="577.49" y="328.15" width="125.10" height="6.23" fill="#3572a5" fill-opacity="0.85"/>
<rect x="577.49" y="334.38" width="125.10" height="2.47" fill="#89e051" fill-opacity="0.85"/>
<rect x="577.49" y="336.85" width="125.10" height="1.15" fill="#384d54" fill-opacity="0.85"/>
</g>
<rect x="577.49" y="240.62" width="125.10" height="97.38" rx="5" fill="none" stroke="#3d444d" stroke-width="1" stroke-dasharray="3 3"/>
<text x="587.49" y="262.62" font-size="13" font-weight="600" fill="#9198a1" font-style="italic">private</text>
<text x="587.49" y="278.62" font-size="11" fill="#9198a1">263 KB</text>
<clipPath id="t6"><rect x="706.59" y="120.03" width="97.93" height="96.98" rx="5"/></clipPath>
<g clip-path="url(#t6)">
<rect x="706.59" y="120.03" width="97.93" height="68.14" fill="#f1e05a" fill-opacity="0.85"/>
<rect x="706.59" y="188.17" width="97.93" height="27.38" fill="#663399" fill-opacity="0.85"/>
<rect x="706.59" y="215.55" width="97.93" height="1.17" fill="#89e051" fill-opacity="0.85"/>
<rect x="706.59" y="216.72" width="97.93" height="0.29" fill="#3178c6" fill-opacity="0.85"/>
</g>
<rect x="706.59" y="120.03" width="97.93" height="96.98" rx="5" fill="none" stroke="#3d444d" stroke-width="1"/>
<text x="716.59" y="142.03" font-size="13" font-weight="600" fill="#f0f6fc">my-homebase</text>
<text x="716.59" y="158.03" font-size="11" fill="#9198a1">207 KB</text>
<clipPath id="t7"><rect x="808.52" y="120.03" width="69.48" height="96.98" rx="5"/></clipPath>
<g clip-path="url(#t7)">
<rect x="808.52" y="120.03" width="69.48" height="96.98" fill="#3572a5" fill-opacity="0.85"/>
</g>
<rect x="808.52" y="120.03" width="69.48" height="96.98" rx="5" fill="none" stroke="#3d444d" stroke-width="1"/>
<clipPath id="t8"><rect x="706.59" y="221.01" width="69.59" height="72.32" rx="5"/></clipPath>
<g clip-path="url(#t8)">
<rect x="706.59" y="221.01" width="69.59" height="66.87" fill="#3572a5" fill-opacity="0.85"/>
<rect x="706.59" y="287.88" width="69.59" height="3.70" fill="#012456" fill-opacity="0.85"/>
<rect x="706.59" y="291.58" width="69.59" height="1.75" fill="#8b949e" fill-opacity="0.85"/>
</g>
<rect x="706.59" y="221.01" width="69.59" height="72.32" rx="5" fill="none" stroke="#3d444d" stroke-width="1" stroke-dasharray="3 3"/>
<clipPath id="t9"><rect x="706.59" y="297.33" width="69.59" height="40.67" rx="5"/></clipPath>
<g clip-path="url(#t9)">
<rect x="706.59" y="297.33" width="69.59" height="16.19" fill="#012456" fill-opacity="0.85"/>
<rect x="706.59" y="313.51" width="69.59" height="14.53" fill="#7e7eff" fill-opacity="0.85"/>
<rect x="706.59" y="328.05" width="69.59" height="6.11" fill="#89e051" fill-opacity="0.85"/>
<rect x="706.59" y="334.16" width="69.59" height="3.84" fill="#384d54" fill-opacity="0.85"/>
</g>
<rect x="706.59" y="297.33" width="69.59" height="40.67" rx="5" fill="none" stroke="#3d444d" stroke-width="1"/>
<clipPath id="t10"><rect x="780.18" y="221.01" width="51.18" height="42.14" rx="5"/></clipPath>
<g clip-path="url(#t10)">
<rect x="780.18" y="221.01" width="51.18" height="41.86" fill="#3178c6" fill-opacity="0.85"/>
<rect x="780.18" y="262.87" width="51.18" height="0.28" fill="#8b949e" fill-opacity="0.85"/>
</g>
<rect x="780.18" y="221.01" width="51.18" height="42.14" rx="5" fill="none" stroke="#3d444d" stroke-width="1" stroke-dasharray="3 3"/>
<clipPath id="t11"><rect x="835.36" y="221.01" width="42.64" height="42.14" rx="5"/></clipPath>
<g clip-path="url(#t11)">
<rect x="835.36" y="221.01" width="42.64" height="26.21" fill="#dea584" fill-opacity="0.85"/>
<rect x="835.36" y="247.21" width="42.64" height="14.73" fill="#f05138" fill-opacity="0.85"/>
<rect x="835.36" y="261.94" width="42.64" height="1.02" fill="#89e051" fill-opacity="0.85"/>
<rect x="835.36" y="262.97" width="42.64" height="0.18" fill="#555555" fill-opacity="0.85"/>
</g>
<rect x="835.36" y="221.01" width="42.64" height="42.14" rx="5" fill="none" stroke="#3d444d" stroke-width="1"/>
<clipPath id="t12"><rect x="780.18" y="267.15" width="47.40" height="35.43" rx="5"/></clipPath>
<g clip-path="url(#t12)">
<rect x="780.18" y="267.15" width="47.40" height="21.39" fill="#f1e05a" fill-opacity="0.85"/>
<rect x="780.18" y="288.54" width="47.40" height="7.76" fill="#3572a5" fill-opacity="0.85"/>
<rect x="780.18" y="296.30" width="47.40" height="3.84" fill="#663399" fill-opacity="0.85"/>
<rect x="780.18" y="300.14" width="47.40" height="2.43" fill="#e34c26" fill-opacity="0.85"/>
</g>
<rect x="780.18" y="267.15" width="47.40" height="35.43" rx="5" fill="none" stroke="#3d444d" stroke-width="1" stroke-dasharray="3 3"/>
<clipPath id="t13"><rect x="780.18" y="306.57" width="47.40" height="31.43" rx="5"/></clipPath>
<g clip-path="url(#t13)">
<rect x="780.18" y="306.57" width="47.40" height="31.43" fill="#dea584" fill-opacity="0.85"/>
</g>
<rect x="780.18" y="306.57" width="47.40" height="31.43" rx="5" fill="none" stroke="#3d444d" stroke-width="1" stroke-dasharray="3 3"/>
<clipPath id="t14"><rect x="831.57" y="267.15" width="46.43" height="32.01" rx="5"/></clipPath>
<g clip-path="url(#t14)">
<rect x="831.57" y="267.15" width="46.43" height="30.73" fill="#f05138" fill-opacity="0.85"/>
<rect x="831.57" y="297.88" width="46.43" height="1.28" fill="#89e051" fill-opacity="0.85"/>
</g>
<rect x="831.57" y="267.15" width="46.43" height="32.01" rx="5" fill="none" stroke="#3d444d" stroke-width="1"/>
<clipPath id="t15"><rect x="831.57" y="303.16" width="21.11" height="34.84" rx="5"/></clipPath>
<g clip-path="url(#t15)">
<rect x="831.57" y="303.16" width="21.11" height="19.42" fill="#89e051" fill-opacity="0.85"/>
<rect x="831.57" y="322.58" width="21.11" height="14.79" fill="#663399" fill-opacity="0.85"/>
<rect x="831.57" y="337.37" width="21.11" height="0.63" fill="#8b949e" fill-opacity="0.85"/>
</g>
<rect x="831.57" y="303.16" width="21.11" height="34.84" rx="5" fill="none" stroke="#3d444d" stroke-width="1" stroke-dasharray="3 3"/>
<clipPath id="t16"><rect x="856.68" y="303.16" width="21.32" height="29.48" rx="5"/></clipPath>
<g clip-path="url(#t16)">
<rect x="856.68" y="303.16" width="21.32" height="29.48" fill="#f1e05a" fill-opacity="0.85"/>
</g>
<rect x="856.68" y="303.16" width="21.32" height="29.48" rx="5" fill="none" stroke="#3d444d" stroke-width="1"/>
<clipPath id="t17"><rect x="856.68" y="336.64" width="21.32" height="1.36" rx="5"/></clipPath>
<g clip-path="url(#t17)">
<rect x="856.68" y="336.64" width="21.32" height="1.36" fill="#3572a5" fill-opacity="0.85"/>
</g>
<rect x="856.68" y="336.64" width="21.32" height="1.36" rx="5" fill="none" stroke="#3d444d" stroke-width="1" stroke-dasharray="3 3"/>
<text x="0" y="364" font-size="11" fill="#9198a1">7 public · 11 private · 6.0 MB of source · sized by bytes, split by language · GitHub API, 2026-10-02</text>
</svg>
