<svg xmlns="http://www.w3.org/2000/svg" width="880" height="374" viewBox="0 0 880 374" font-family="ui-monospace,SFMono-Regular,Menlo,monospace" role="img" aria-label="Treemap of 13 repositories (5 public · 8 private), each tile sized by source bytes and split by language.">
<title>Treemap of 13 repositories (5 public · 8 private), each tile sized by source bytes and split by language.</title>
<clipPath id="t0"><rect x="2.00" y="2.00" width="223.83" height="336.00" rx="5"/></clipPath>
<g clip-path="url(#t0)">
<rect x="2.00" y="2.00" width="223.83" height="190.86" fill="#00add8" fill-opacity="0.85"/>
<rect x="2.00" y="192.86" width="223.83" height="85.67" fill="#8b949e" fill-opacity="0.85"/>
<rect x="2.00" y="278.53" width="223.83" height="44.74" fill="#89e051" fill-opacity="0.85"/>
<rect x="2.00" y="323.27" width="223.83" height="14.13" fill="#3178c6" fill-opacity="0.85"/>
<rect x="2.00" y="337.40" width="223.83" height="0.34" fill="#f1e05a" fill-opacity="0.85"/>
<rect x="2.00" y="337.74" width="223.83" height="0.26" fill="#e34c26" fill-opacity="0.85"/>
</g>
<rect x="2.00" y="2.00" width="223.83" height="336.00" rx="5" fill="none" stroke="#d1d9e0" stroke-width="1" stroke-dasharray="3 3"/>
<text x="12.00" y="24.00" font-size="13" font-weight="600" fill="#59636e" font-style="italic">private</text>
<text x="12.00" y="40.00" font-size="11" fill="#59636e">372 KB</text>
<clipPath id="t1"><rect x="229.83" y="2.00" width="210.69" height="336.00" rx="5"/></clipPath>
<g clip-path="url(#t1)">
<rect x="229.83" y="2.00" width="210.69" height="297.93" fill="#8b949e" fill-opacity="0.85"/>
<rect x="229.83" y="299.93" width="210.69" height="38.07" fill="#012456" fill-opacity="0.85"/>
</g>
<rect x="229.83" y="2.00" width="210.69" height="336.00" rx="5" fill="none" stroke="#d1d9e0" stroke-width="1" stroke-dasharray="3 3"/>
<text x="239.83" y="24.00" font-size="13" font-weight="600" fill="#59636e" font-style="italic">private</text>
<text x="239.83" y="40.00" font-size="11" fill="#59636e">350 KB</text>
<clipPath id="t2"><rect x="444.51" y="2.00" width="216.67" height="229.46" rx="5"/></clipPath>
<g clip-path="url(#t2)">
<rect x="444.51" y="2.00" width="216.67" height="156.84" fill="#7e7eff" fill-opacity="0.85"/>
<rect x="444.51" y="158.84" width="216.67" height="30.07" fill="#384d54" fill-opacity="0.85"/>
<rect x="444.51" y="188.91" width="216.67" height="21.05" fill="#000080" fill-opacity="0.85"/>
<rect x="444.51" y="209.96" width="216.67" height="14.07" fill="#89e051" fill-opacity="0.85"/>
<rect x="444.51" y="224.03" width="216.67" height="7.43" fill="#012456" fill-opacity="0.85"/>
</g>
<rect x="444.51" y="2.00" width="216.67" height="229.46" rx="5" fill="none" stroke="#d1d9e0" stroke-width="1" stroke-dasharray="3 3"/>
<text x="454.51" y="24.00" font-size="13" font-weight="600" fill="#59636e" font-style="italic">private</text>
<text x="454.51" y="40.00" font-size="11" fill="#59636e">247 KB</text>
<clipPath id="t3"><rect x="444.51" y="235.46" width="216.67" height="102.54" rx="5"/></clipPath>
<g clip-path="url(#t3)">
<rect x="444.51" y="235.46" width="216.67" height="94.82" fill="#3572a5" fill-opacity="0.85"/>
<rect x="444.51" y="330.28" width="216.67" height="5.25" fill="#012456" fill-opacity="0.85"/>
<rect x="444.51" y="335.52" width="216.67" height="2.48" fill="#8b949e" fill-opacity="0.85"/>
</g>
<rect x="444.51" y="235.46" width="216.67" height="102.54" rx="5" fill="none" stroke="#d1d9e0" stroke-width="1" stroke-dasharray="3 3"/>
<text x="454.51" y="257.46" font-size="13" font-weight="600" fill="#59636e" font-style="italic">private</text>
<text x="454.51" y="273.46" font-size="11" fill="#59636e">113 KB</text>
<clipPath id="t4"><rect x="665.18" y="2.00" width="118.19" height="108.63" rx="5"/></clipPath>
<g clip-path="url(#t4)">
<rect x="665.18" y="2.00" width="118.19" height="43.24" fill="#012456" fill-opacity="0.85"/>
<rect x="665.18" y="45.24" width="118.19" height="38.81" fill="#7e7eff" fill-opacity="0.85"/>
<rect x="665.18" y="84.05" width="118.19" height="16.32" fill="#89e051" fill-opacity="0.85"/>
<rect x="665.18" y="100.36" width="118.19" height="10.26" fill="#384d54" fill-opacity="0.85"/>
</g>
<rect x="665.18" y="2.00" width="118.19" height="108.63" rx="5" fill="none" stroke="#d1d9e0" stroke-width="1"/>
<text x="675.18" y="24.00" font-size="13" font-weight="600" fill="#1f2328">nix-windows-config</text>
<text x="675.18" y="40.00" font-size="11" fill="#59636e">66 KB</text>
<clipPath id="t5"><rect x="787.37" y="2.00" width="90.63" height="108.63" rx="5"/></clipPath>
<g clip-path="url(#t5)">
<rect x="787.37" y="2.00" width="90.63" height="107.90" fill="#3178c6" fill-opacity="0.85"/>
<rect x="787.37" y="109.90" width="90.63" height="0.72" fill="#8b949e" fill-opacity="0.85"/>
</g>
<rect x="787.37" y="2.00" width="90.63" height="108.63" rx="5" fill="none" stroke="#d1d9e0" stroke-width="1" stroke-dasharray="3 3"/>
<clipPath id="t6"><rect x="665.18" y="114.63" width="110.55" height="84.10" rx="5"/></clipPath>
<g clip-path="url(#t6)">
<rect x="665.18" y="114.63" width="110.55" height="59.08" fill="#f1e05a" fill-opacity="0.85"/>
<rect x="665.18" y="173.71" width="110.55" height="23.95" fill="#663399" fill-opacity="0.85"/>
<rect x="665.18" y="197.66" width="110.55" height="1.07" fill="#3178c6" fill-opacity="0.85"/>
</g>
<rect x="665.18" y="114.63" width="110.55" height="84.10" rx="5" fill="none" stroke="#d1d9e0" stroke-width="1"/>
<text x="675.18" y="136.63" font-size="13" font-weight="600" fill="#1f2328">my-homebase</text>
<text x="675.18" y="152.63" font-size="11" fill="#59636e">48 KB</text>
<clipPath id="t7"><rect x="779.73" y="114.63" width="98.27" height="84.10" rx="5"/></clipPath>
<g clip-path="url(#t7)">
<rect x="779.73" y="114.63" width="98.27" height="52.30" fill="#dea584" fill-opacity="0.85"/>
<rect x="779.73" y="166.92" width="98.27" height="29.40" fill="#f05138" fill-opacity="0.85"/>
<rect x="779.73" y="196.32" width="98.27" height="2.04" fill="#89e051" fill-opacity="0.85"/>
<rect x="779.73" y="198.37" width="98.27" height="0.36" fill="#555555" fill-opacity="0.85"/>
</g>
<rect x="779.73" y="114.63" width="98.27" height="84.10" rx="5" fill="none" stroke="#d1d9e0" stroke-width="1"/>
<text x="789.73" y="136.63" font-size="13" font-weight="600" fill="#1f2328">storage-manager-swift</text>
<text x="789.73" y="152.63" font-size="11" fill="#59636e">43 KB</text>
<clipPath id="t8"><rect x="665.18" y="202.73" width="111.64" height="69.36" rx="5"/></clipPath>
<g clip-path="url(#t8)">
<rect x="665.18" y="202.73" width="111.64" height="41.88" fill="#f1e05a" fill-opacity="0.85"/>
<rect x="665.18" y="244.60" width="111.64" height="15.20" fill="#3572a5" fill-opacity="0.85"/>
<rect x="665.18" y="259.80" width="111.64" height="7.53" fill="#663399" fill-opacity="0.85"/>
<rect x="665.18" y="267.33" width="111.64" height="4.76" fill="#e34c26" fill-opacity="0.85"/>
</g>
<rect x="665.18" y="202.73" width="111.64" height="69.36" rx="5" fill="none" stroke="#d1d9e0" stroke-width="1" stroke-dasharray="3 3"/>
<text x="675.18" y="224.73" font-size="13" font-weight="600" fill="#59636e" font-style="italic">private</text>
<text x="675.18" y="240.73" font-size="11" fill="#59636e">41 KB</text>
<clipPath id="t9"><rect x="665.18" y="276.08" width="111.64" height="61.92" rx="5"/></clipPath>
<g clip-path="url(#t9)">
<rect x="665.18" y="276.08" width="111.64" height="61.92" fill="#dea584" fill-opacity="0.85"/>
</g>
<rect x="665.18" y="276.08" width="111.64" height="61.92" rx="5" fill="none" stroke="#d1d9e0" stroke-width="1" stroke-dasharray="3 3"/>
<text x="675.18" y="298.08" font-size="13" font-weight="600" fill="#59636e" font-style="italic">private</text>
<text x="675.18" y="314.08" font-size="11" fill="#59636e">37 KB</text>
<clipPath id="t10"><rect x="780.81" y="202.73" width="97.19" height="67.17" rx="5"/></clipPath>
<g clip-path="url(#t10)">
<rect x="780.81" y="202.73" width="97.19" height="67.17" fill="#3572a5" fill-opacity="0.85"/>
</g>
<rect x="780.81" y="202.73" width="97.19" height="67.17" rx="5" fill="none" stroke="#d1d9e0" stroke-width="1"/>
<text x="790.81" y="224.73" font-size="13" font-weight="600" fill="#1f2328">mp4trim</text>
<text x="790.81" y="240.73" font-size="11" fill="#59636e">35 KB</text>
<clipPath id="t11"><rect x="780.81" y="273.90" width="55.95" height="64.10" rx="5"/></clipPath>
<g clip-path="url(#t11)">
<rect x="780.81" y="273.90" width="55.95" height="35.72" fill="#89e051" fill-opacity="0.85"/>
<rect x="780.81" y="309.63" width="55.95" height="27.22" fill="#663399" fill-opacity="0.85"/>
<rect x="780.81" y="336.84" width="55.95" height="1.16" fill="#8b949e" fill-opacity="0.85"/>
</g>
<rect x="780.81" y="273.90" width="55.95" height="64.10" rx="5" fill="none" stroke="#d1d9e0" stroke-width="1" stroke-dasharray="3 3"/>
<clipPath id="t12"><rect x="840.76" y="273.90" width="37.24" height="64.10" rx="5"/></clipPath>
<g clip-path="url(#t12)">
<rect x="840.76" y="273.90" width="37.24" height="64.10" fill="#f1e05a" fill-opacity="0.85"/>
</g>
<rect x="840.76" y="273.90" width="37.24" height="64.10" rx="5" fill="none" stroke="#d1d9e0" stroke-width="1"/>
<text x="0" y="364" font-size="11" fill="#59636e">5 public · 8 private · 1.4 MB of source · sized by bytes, split by language · GitHub API, 2026-07-27</text>
</svg>
