<svg xmlns="http://www.w3.org/2000/svg" width="880" height="374" viewBox="0 0 880 374" font-family="ui-monospace,SFMono-Regular,Menlo,monospace" role="img" aria-label="Treemap of 18 repositories (7 public · 11 private), each tile sized by source bytes and split by language.">
<title>Treemap of 18 repositories (7 public · 11 private), each tile sized by source bytes and split by language.</title>
<clipPath id="t0"><rect x="2.00" y="2.00" width="386.22" height="336.00" rx="5"/></clipPath>
<g clip-path="url(#t0)">
<rect x="2.00" y="2.00" width="386.22" height="293.47" fill="#dea584" fill-opacity="0.85"/>
<rect x="2.00" y="295.47" width="386.22" height="27.78" fill="#89e051" fill-opacity="0.85"/>
<rect x="2.00" y="323.26" width="386.22" height="7.08" fill="#3572a5" fill-opacity="0.85"/>
<rect x="2.00" y="330.34" width="386.22" height="3.80" fill="#012456" fill-opacity="0.85"/>
<rect x="2.00" y="334.14" width="386.22" height="2.14" fill="#7e7eff" fill-opacity="0.85"/>
<rect x="2.00" y="336.28" width="386.22" height="1.29" fill="#f05138" fill-opacity="0.85"/>
<rect x="2.00" y="337.57" width="386.22" height="0.43" fill="#8b949e" fill-opacity="0.85"/>
</g>
<rect x="2.00" y="2.00" width="386.22" height="336.00" rx="5" fill="none" stroke="#3d444d" stroke-width="1"/>
<text x="12.00" y="24.00" font-size="13" font-weight="600" fill="#f0f6fc">outloud</text>
<text x="12.00" y="40.00" font-size="11" fill="#9198a1">2.6 MB</text>
<clipPath id="t1"><rect x="392.22" y="2.00" width="205.38" height="336.00" rx="5"/></clipPath>
<g clip-path="url(#t1)">
<rect x="392.22" y="2.00" width="205.38" height="322.76" fill="#3178c6" fill-opacity="0.85"/>
<rect x="392.22" y="324.76" width="205.38" height="5.19" fill="#f1e05a" fill-opacity="0.85"/>
<rect x="392.22" y="329.95" width="205.38" height="2.86" fill="#8b949e" fill-opacity="0.85"/>
<rect x="392.22" y="332.81" width="205.38" height="2.59" fill="#3572a5" fill-opacity="0.85"/>
<rect x="392.22" y="335.40" width="205.38" height="1.18" fill="#89e051" fill-opacity="0.85"/>
<rect x="392.22" y="336.58" width="205.38" height="0.60" fill="#8b949e" fill-opacity="0.85"/>
<rect x="392.22" y="337.18" width="205.38" height="0.52" fill="#8b949e" fill-opacity="0.85"/>
<rect x="392.22" y="337.70" width="205.38" height="0.30" fill="#f05138" fill-opacity="0.85"/>
</g>
<rect x="392.22" y="2.00" width="205.38" height="336.00" rx="5" fill="none" stroke="#3d444d" stroke-width="1" stroke-dasharray="3 3"/>
<text x="402.22" y="24.00" font-size="13" font-weight="600" fill="#9198a1" font-style="italic">private</text>
<text x="402.22" y="40.00" font-size="11" fill="#9198a1">1.4 MB</text>
<clipPath id="t2"><rect x="601.61" y="2.00" width="140.36" height="129.55" rx="5"/></clipPath>
<g clip-path="url(#t2)">
<rect x="601.61" y="2.00" width="140.36" height="73.59" fill="#00add8" fill-opacity="0.85"/>
<rect x="601.61" y="75.59" width="140.36" height="33.03" fill="#8b949e" fill-opacity="0.85"/>
<rect x="601.61" y="108.62" width="140.36" height="17.25" fill="#89e051" fill-opacity="0.85"/>
<rect x="601.61" y="125.87" width="140.36" height="5.45" fill="#3178c6" fill-opacity="0.85"/>
<rect x="601.61" y="131.32" width="140.36" height="0.13" fill="#f1e05a" fill-opacity="0.85"/>
<rect x="601.61" y="131.45" width="140.36" height="0.10" fill="#e34c26" fill-opacity="0.85"/>
</g>
<rect x="601.61" y="2.00" width="140.36" height="129.55" rx="5" fill="none" stroke="#3d444d" stroke-width="1" stroke-dasharray="3 3"/>
<text x="611.61" y="24.00" font-size="13" font-weight="600" fill="#9198a1" font-style="italic">private</text>
<text x="611.61" y="40.00" font-size="11" fill="#9198a1">372 KB</text>
<clipPath id="t3"><rect x="745.97" y="2.00" width="132.03" height="129.55" rx="5"/></clipPath>
<g clip-path="url(#t3)">
<rect x="745.97" y="2.00" width="132.03" height="114.87" fill="#8b949e" fill-opacity="0.85"/>
<rect x="745.97" y="116.87" width="132.03" height="14.68" fill="#012456" fill-opacity="0.85"/>
</g>
<rect x="745.97" y="2.00" width="132.03" height="129.55" rx="5" fill="none" stroke="#3d444d" stroke-width="1" stroke-dasharray="3 3"/>
<text x="755.97" y="24.00" font-size="13" font-weight="600" fill="#9198a1" font-style="italic">private</text>
<text x="755.97" y="40.00" font-size="11" fill="#9198a1">350 KB</text>
<clipPath id="t4"><rect x="601.61" y="135.55" width="140.63" height="108.16" rx="5"/></clipPath>
<g clip-path="url(#t4)">
<rect x="601.61" y="135.55" width="140.63" height="68.04" fill="#7e7eff" fill-opacity="0.85"/>
<rect x="601.61" y="203.59" width="140.63" height="13.52" fill="#384d54" fill-opacity="0.85"/>
<rect x="601.61" y="217.12" width="140.63" height="11.56" fill="#000080" fill-opacity="0.85"/>
<rect x="601.61" y="228.68" width="140.63" height="6.48" fill="#89e051" fill-opacity="0.85"/>
<rect x="601.61" y="235.16" width="140.63" height="5.79" fill="#3572a5" fill-opacity="0.85"/>
<rect x="601.61" y="240.94" width="140.63" height="2.77" fill="#012456" fill-opacity="0.85"/>
</g>
<rect x="601.61" y="135.55" width="140.63" height="108.16" rx="5" fill="none" stroke="#3d444d" stroke-width="1" stroke-dasharray="3 3"/>
<text x="611.61" y="157.55" font-size="13" font-weight="600" fill="#9198a1" font-style="italic">private</text>
<text x="611.61" y="173.55" font-size="11" fill="#9198a1">313 KB</text>
<clipPath id="t5"><rect x="601.61" y="247.71" width="140.63" height="90.29" rx="5"/></clipPath>
<g clip-path="url(#t5)">
<rect x="601.61" y="247.71" width="140.63" height="69.67" fill="#7e7eff" fill-opacity="0.85"/>
<rect x="601.61" y="317.38" width="140.63" height="11.48" fill="#000080" fill-opacity="0.85"/>
<rect x="601.61" y="328.86" width="140.63" height="5.78" fill="#3572a5" fill-opacity="0.85"/>
<rect x="601.61" y="334.64" width="140.63" height="2.29" fill="#89e051" fill-opacity="0.85"/>
<rect x="601.61" y="336.94" width="140.63" height="1.06" fill="#384d54" fill-opacity="0.85"/>
</g>
<rect x="601.61" y="247.71" width="140.63" height="90.29" rx="5" fill="none" stroke="#3d444d" stroke-width="1" stroke-dasharray="3 3"/>
<text x="611.61" y="269.71" font-size="13" font-weight="600" fill="#9198a1" font-style="italic">private</text>
<text x="611.61" y="285.71" font-size="11" fill="#9198a1">263 KB</text>
<clipPath id="t6"><rect x="746.23" y="135.55" width="75.64" height="69.47" rx="5"/></clipPath>
<g clip-path="url(#t6)">
<rect x="746.23" y="135.55" width="75.64" height="64.24" fill="#3572a5" fill-opacity="0.85"/>
<rect x="746.23" y="199.79" width="75.64" height="3.55" fill="#012456" fill-opacity="0.85"/>
<rect x="746.23" y="203.35" width="75.64" height="1.68" fill="#8b949e" fill-opacity="0.85"/>
</g>
<rect x="746.23" y="135.55" width="75.64" height="69.47" rx="5" fill="none" stroke="#3d444d" stroke-width="1" stroke-dasharray="3 3"/>
<clipPath id="t7"><rect x="825.87" y="135.55" width="52.13" height="69.47" rx="5"/></clipPath>
<g clip-path="url(#t7)">
<rect x="825.87" y="135.55" width="52.13" height="50.77" fill="#f1e05a" fill-opacity="0.85"/>
<rect x="825.87" y="186.33" width="52.13" height="18.16" fill="#663399" fill-opacity="0.85"/>
<rect x="825.87" y="204.49" width="52.13" height="0.54" fill="#3178c6" fill-opacity="0.85"/>
</g>
<rect x="825.87" y="135.55" width="52.13" height="69.47" rx="5" fill="none" stroke="#3d444d" stroke-width="1"/>
<clipPath id="t8"><rect x="746.23" y="209.02" width="41.71" height="70.94" rx="5"/></clipPath>
<g clip-path="url(#t8)">
<rect x="746.23" y="209.02" width="41.71" height="28.23" fill="#012456" fill-opacity="0.85"/>
<rect x="746.23" y="237.26" width="41.71" height="25.34" fill="#7e7eff" fill-opacity="0.85"/>
<rect x="746.23" y="262.60" width="41.71" height="10.66" fill="#89e051" fill-opacity="0.85"/>
<rect x="746.23" y="273.26" width="41.71" height="6.70" fill="#384d54" fill-opacity="0.85"/>
</g>
<rect x="746.23" y="209.02" width="41.71" height="70.94" rx="5" fill="none" stroke="#3d444d" stroke-width="1"/>
<clipPath id="t9"><rect x="746.23" y="283.96" width="41.71" height="54.04" rx="5"/></clipPath>
<g clip-path="url(#t9)">
<rect x="746.23" y="283.96" width="41.71" height="53.68" fill="#3178c6" fill-opacity="0.85"/>
<rect x="746.23" y="337.64" width="41.71" height="0.36" fill="#8b949e" fill-opacity="0.85"/>
</g>
<rect x="746.23" y="283.96" width="41.71" height="54.04" rx="5" fill="none" stroke="#3d444d" stroke-width="1" stroke-dasharray="3 3"/>
<clipPath id="t10"><rect x="791.94" y="209.02" width="42.39" height="44.34" rx="5"/></clipPath>
<g clip-path="url(#t10)">
<rect x="791.94" y="209.02" width="42.39" height="27.57" fill="#dea584" fill-opacity="0.85"/>
<rect x="791.94" y="236.60" width="42.39" height="15.50" fill="#f05138" fill-opacity="0.85"/>
<rect x="791.94" y="252.10" width="42.39" height="1.08" fill="#89e051" fill-opacity="0.85"/>
<rect x="791.94" y="253.18" width="42.39" height="0.19" fill="#555555" fill-opacity="0.85"/>
</g>
<rect x="791.94" y="209.02" width="42.39" height="44.34" rx="5" fill="none" stroke="#3d444d" stroke-width="1"/>
<clipPath id="t11"><rect x="838.33" y="209.02" width="39.67" height="44.34" rx="5"/></clipPath>
<g clip-path="url(#t11)">
<rect x="838.33" y="209.02" width="39.67" height="26.77" fill="#f1e05a" fill-opacity="0.85"/>
<rect x="838.33" y="235.80" width="39.67" height="9.71" fill="#3572a5" fill-opacity="0.85"/>
<rect x="838.33" y="245.51" width="39.67" height="4.81" fill="#663399" fill-opacity="0.85"/>
<rect x="838.33" y="250.32" width="39.67" height="3.04" fill="#e34c26" fill-opacity="0.85"/>
</g>
<rect x="838.33" y="209.02" width="39.67" height="44.34" rx="5" fill="none" stroke="#3d444d" stroke-width="1" stroke-dasharray="3 3"/>
<clipPath id="t12"><rect x="791.94" y="257.37" width="40.77" height="38.37" rx="5"/></clipPath>
<g clip-path="url(#t12)">
<rect x="791.94" y="257.37" width="40.77" height="38.37" fill="#dea584" fill-opacity="0.85"/>
</g>
<rect x="791.94" y="257.37" width="40.77" height="38.37" rx="5" fill="none" stroke="#3d444d" stroke-width="1" stroke-dasharray="3 3"/>
<clipPath id="t13"><rect x="791.94" y="299.74" width="40.77" height="38.26" rx="5"/></clipPath>
<g clip-path="url(#t13)">
<rect x="791.94" y="299.74" width="40.77" height="36.73" fill="#f05138" fill-opacity="0.85"/>
<rect x="791.94" y="336.47" width="40.77" height="1.53" fill="#89e051" fill-opacity="0.85"/>
</g>
<rect x="791.94" y="299.74" width="40.77" height="38.26" rx="5" fill="none" stroke="#3d444d" stroke-width="1"/>
<clipPath id="t14"><rect x="836.71" y="257.37" width="41.29" height="35.58" rx="5"/></clipPath>
<g clip-path="url(#t14)">
<rect x="836.71" y="257.37" width="41.29" height="35.58" fill="#3572a5" fill-opacity="0.85"/>
</g>
<rect x="836.71" y="257.37" width="41.29" height="35.58" rx="5" fill="none" stroke="#3d444d" stroke-width="1"/>
<clipPath id="t15"><rect x="836.71" y="296.94" width="18.55" height="41.06" rx="5"/></clipPath>
<g clip-path="url(#t15)">
<rect x="836.71" y="296.94" width="18.55" height="22.88" fill="#89e051" fill-opacity="0.85"/>
<rect x="836.71" y="319.83" width="18.55" height="17.43" fill="#663399" fill-opacity="0.85"/>
<rect x="836.71" y="337.26" width="18.55" height="0.74" fill="#8b949e" fill-opacity="0.85"/>
</g>
<rect x="836.71" y="296.94" width="18.55" height="41.06" rx="5" fill="none" stroke="#3d444d" stroke-width="1" stroke-dasharray="3 3"/>
<clipPath id="t16"><rect x="859.26" y="296.94" width="18.74" height="34.84" rx="5"/></clipPath>
<g clip-path="url(#t16)">
<rect x="859.26" y="296.94" width="18.74" height="34.84" fill="#f1e05a" fill-opacity="0.85"/>
</g>
<rect x="859.26" y="296.94" width="18.74" height="34.84" rx="5" fill="none" stroke="#3d444d" stroke-width="1"/>
<clipPath id="t17"><rect x="859.26" y="335.78" width="18.74" height="2.22" rx="5"/></clipPath>
<g clip-path="url(#t17)">
<rect x="859.26" y="335.78" width="18.74" height="2.22" fill="#3572a5" fill-opacity="0.85"/>
</g>
<rect x="859.26" y="335.78" width="18.74" height="2.22" rx="5" fill="none" stroke="#3d444d" stroke-width="1" stroke-dasharray="3 3"/>
<text x="0" y="364" font-size="11" fill="#9198a1">7 public · 11 private · 5.8 MB of source · sized by bytes, split by language · GitHub API, 2026-09-20</text>
</svg>
