<svg xmlns="http://www.w3.org/2000/svg" width="880" height="374" viewBox="0 0 880 374" font-family="ui-monospace,SFMono-Regular,Menlo,monospace" role="img" aria-label="Treemap of 5 public repositories, sized by source bytes and split by language.">
<title>Treemap of 5 public repositories, sized by source bytes and split by language.</title>
<clipPath id="clip-nix-windows-config"><rect x="2.00" y="2.00" width="285.40" height="336.00" rx="5"/></clipPath>
<g clip-path="url(#clip-nix-windows-config)">
<rect x="2.00" y="2.00" width="285.40" height="133.73" fill="#012456" fill-opacity="0.85"/>
<rect x="2.00" y="135.73" width="285.40" height="120.04" fill="#7e7eff" fill-opacity="0.85"/>
<rect x="2.00" y="255.78" width="285.40" height="50.47" fill="#89e051" fill-opacity="0.85"/>
<rect x="2.00" y="306.25" width="285.40" height="31.75" fill="#384d54" fill-opacity="0.85"/>
</g>
<rect x="2.00" y="2.00" width="285.40" height="336.00" rx="5" fill="none" stroke="#3d444d" stroke-width="1"/>
<text x="12.00" y="24.00" font-size="13" font-weight="600" fill="#f0f6fc">nix-windows-config</text>
<text x="12.00" y="40.00" font-size="11" fill="#9198a1">66 KB</text>
<clipPath id="clip-my-homebase"><rect x="291.40" y="2.00" width="208.23" height="336.00" rx="5"/></clipPath>
<g clip-path="url(#clip-my-homebase)">
<rect x="291.40" y="2.00" width="208.23" height="236.04" fill="#f1e05a" fill-opacity="0.85"/>
<rect x="291.40" y="238.04" width="208.23" height="95.70" fill="#663399" fill-opacity="0.85"/>
<rect x="291.40" y="333.74" width="208.23" height="4.26" fill="#3178c6" fill-opacity="0.85"/>
</g>
<rect x="291.40" y="2.00" width="208.23" height="336.00" rx="5" fill="none" stroke="#3d444d" stroke-width="1"/>
<text x="301.40" y="24.00" font-size="13" font-weight="600" fill="#f0f6fc">my-homebase</text>
<text x="301.40" y="40.00" font-size="11" fill="#9198a1">48 KB</text>
<clipPath id="clip-storage-manager-swift"><rect x="503.63" y="2.00" width="185.47" height="336.00" rx="5"/></clipPath>
<g clip-path="url(#clip-storage-manager-swift)">
<rect x="503.63" y="2.00" width="185.47" height="208.94" fill="#dea584" fill-opacity="0.85"/>
<rect x="503.63" y="210.94" width="185.47" height="117.46" fill="#f05138" fill-opacity="0.85"/>
<rect x="503.63" y="328.40" width="185.47" height="8.16" fill="#89e051" fill-opacity="0.85"/>
<rect x="503.63" y="336.56" width="185.47" height="1.44" fill="#555555" fill-opacity="0.85"/>
</g>
<rect x="503.63" y="2.00" width="185.47" height="336.00" rx="5" fill="none" stroke="#3d444d" stroke-width="1"/>
<text x="513.63" y="24.00" font-size="13" font-weight="600" fill="#f0f6fc">storage-manager-swift</text>
<text x="513.63" y="40.00" font-size="11" fill="#9198a1">43 KB</text>
<clipPath id="clip-mp4trim"><rect x="693.10" y="2.00" width="184.90" height="268.59" rx="5"/></clipPath>
<g clip-path="url(#clip-mp4trim)">
<rect x="693.10" y="2.00" width="184.90" height="268.59" fill="#3572a5" fill-opacity="0.85"/>
</g>
<rect x="693.10" y="2.00" width="184.90" height="268.59" rx="5" fill="none" stroke="#3d444d" stroke-width="1"/>
<text x="703.10" y="24.00" font-size="13" font-weight="600" fill="#f0f6fc">mp4trim</text>
<text x="703.10" y="40.00" font-size="11" fill="#9198a1">35 KB</text>
<clipPath id="clip-blarer"><rect x="693.10" y="274.59" width="184.90" height="63.41" rx="5"/></clipPath>
<g clip-path="url(#clip-blarer)">
<rect x="693.10" y="274.59" width="184.90" height="63.41" fill="#f1e05a" fill-opacity="0.85"/>
</g>
<rect x="693.10" y="274.59" width="184.90" height="63.41" rx="5" fill="none" stroke="#3d444d" stroke-width="1"/>
<text x="703.10" y="296.59" font-size="13" font-weight="600" fill="#f0f6fc">blarer</text>
<text x="703.10" y="312.59" font-size="11" fill="#9198a1">9 KB</text>
<text x="0" y="364" font-size="11" fill="#9198a1">5 repositories · 201 KB of source · sized by bytes, split by language · GitHub API, 2026-07-27</text>
</svg>
